<svg
    xmlns="http://www.w3.org/2000/svg"
    width="91.787"
    height="84.116"
    viewBox="0 0 91.787 84.116"
>
    <g data-name="Group 1021" transform="translate(891.292 39.276)">
        <path
            d="M-891.292 158.124l2.867-10.884c1.3-4.961 2.586-9.926 3.9-14.884a2.8 2.8 0 012.664-2.251 2.654 2.654 0 012.763 1.848 3.929 3.929 0 01.037 2q-3.073 12-6.226 23.984c-.64 2.452.088 3.739 2.533 4.394q29.033 7.775 58.067 15.543a2.893 2.893 0 003.97-2.327c.626-2.487 1.227-4.98 1.849-7.468a2.9 2.9 0 013.436-2.368 2.894 2.894 0 012.124 3.726c-.627 2.609-1.256 5.219-1.944 7.813A8.547 8.547 0 01-826 183.469q-29.3-7.827-58.584-15.682a8.566 8.566 0 01-6.552-6.853 1.264 1.264 0 00-.16-.3z"
            data-name="Path 536"
            transform="translate(0 -138.958)"
        ></path>
        <path
            d="M-767.966 21.9c-9.648 0-19.3-.062-28.943.029a9.215 9.215 0 01-8.88-5.491 7.393 7.393 0 01-.451-3.232c-.027-14.606-.053-29.212 0-43.818a8.532 8.532 0 018.907-8.66q29.346-.008 58.693 0a8.581 8.581 0 018.877 8.872q.017 21.685 0 43.37a8.551 8.551 0 01-8.9 8.923c-9.769.022-19.537.007-29.303.007zM-773.938.457l4.606-5.528q4.674-5.611 9.345-11.224a6.85 6.85 0 017.183-2.522c1.734.377 2.87 1.622 3.969 2.909q6.341 7.428 12.7 14.838a6.488 6.488 0 01.426.631l.211-.158v-.789-28.857c0-2.179-1.125-3.294-3.316-3.295h-58.432c-2.141 0-3.277 1.115-3.278 3.25q-.008 18.865 0 37.73a5.429 5.429 0 00.07.624l.239.127a5.744 5.744 0 01.529-.721q5.636-5.646 11.286-11.28c3.131-3.127 7.065-3.129 10.21 0 1.39 1.386 2.778 2.786 4.252 4.265zm-25.649 14.9a3.316 3.316 0 002.611.808h57.9c.239 0 .478 0 .717-.005a2.828 2.828 0 002.864-2.923c.02-1.195-.052-2.393.023-3.584a2.712 2.712 0 00-.78-2.072q-8.569-9.946-17.1-19.927c-1.071-1.25-1.417-1.243-2.489.044q-7.71 9.264-15.424 18.523c-1.468 1.762-3.193 1.826-4.833.189q-3.076-3.071-6.147-6.147c-.963-.962-1.146-.963-2.1-.01l-13.377 13.367c-.588.58-1.215 1.133-1.865 1.738z"
            data-name="Path 537"
            transform="translate(-69.752)"
        ></path>
        <path
            d="M-734.635 39.893a7.657 7.657 0 01-7.659-7.6 7.688 7.688 0 017.7-7.667 7.682 7.682 0 017.612 7.663 7.653 7.653 0 01-7.653 7.604zm-.029-5.742a1.9 1.9 0 001.938-1.906 1.934 1.934 0 00-1.886-1.884 1.927 1.927 0 00-1.936 1.92 1.9 1.9 0 001.884 1.87z"
            data-name="Path 538"
            transform="translate(-122.238 -52.421)"
        ></path>
    </g>
</svg>